<svg xmlns="http://www.w3.org/2000/svg" width="20" height="20" viewBox="0 0 20 20">
    <g fill="none" fill-rule="evenodd">
        <g fill="#545353" fill-rule="nonzero">
            <g>
                <path d="M19.85 19.77c-.112.138-.277.222-.454.23-.178.007-.35-.062-.472-.19L9.99 10.877 1.058 19.81c-.155.16-.383.223-.598.166-.215-.056-.383-.224-.44-.439-.056-.215.007-.444.167-.598l8.932-8.933L.187 1.073C.027.918-.036.69.02.475.077.26.245.092.46.035c.215-.056.443.007.598.167l8.933 8.932L18.924.202c.148-.163.372-.235.587-.188.216.047.39.206.457.416s-4.559 5.015-4.707 5.178l4.534-4.535-8.933 8.933 8.933 8.933c.23.22.254.581.055.83z" transform="translate(-20.000000, -525.000000) translate(20.000000, 525.000000)"/>
            </g>
        </g>
    </g>
</svg>
