<svg width="26" height="30" viewBox="0 0 26 30" fill="none" xmlns="http://www.w3.org/2000/svg">
<g clip-path="url(#clip0_526_1283)">
<path d="M18.5754 30H17.5971C16.9635 29.7643 16.319 29.5551 15.6991 29.2871C14.1612 28.6208 12.6053 28.5613 11.0314 29.1086C10.2219 29.3906 9.42169 29.7019 8.61719 30H7.58129C7.42846 29.9545 7.27636 29.909 7.12426 29.8613C6.03501 29.522 5.20745 28.7936 4.50459 27.9323C1.90872 24.7506 0.309818 21.1394 0.0308389 16.9694C-0.0725381 15.5856 0.0618778 14.1941 0.428041 12.8574C0.993929 10.833 2.20356 9.2917 3.91348 8.14988C5.42083 7.14244 7.06442 6.73712 8.8421 7.17255C9.76843 7.39944 10.6666 7.74529 11.5814 8.03093C12.4292 8.29601 13.2892 8.38045 14.1535 8.12932C14.6488 7.98247 15.1389 7.81799 15.6198 7.62854C17.6079 6.84726 19.5846 6.71802 21.541 7.724C22.6225 8.27971 23.57 9.07206 24.3157 10.0443C22.0089 11.4791 20.8231 13.5403 21.0465 16.299C21.2657 19.0298 22.7074 20.9184 25.1584 22.0147C25.1478 22.0599 25.1348 22.1045 25.1195 22.1483C24.3669 23.9232 23.406 25.5985 22.2576 27.1378C21.7065 27.9029 21.0556 28.588 20.3228 29.174C19.8023 29.5837 19.2004 29.8165 18.5754 30Z" fill="#202020"/>
<path d="M12.1824 7.1681C11.6107 4.16267 14.4243 0.284903 18.0849 0C18.6703 3.17285 15.7399 7.348 12.1824 7.1681Z" fill="#202020"/>
</g>
<defs>
<clipPath id="clip0_526_1283">
<rect width="25.16" height="30" fill="white"/>
</clipPath>
</defs>
</svg>
