<svg width="24" height="24" viewBox="0 0 24 24" fill="none" xmlns="http://www.w3.org/2000/svg">
<path d="M7.0189 9.62167C5.15284 9.62578 3.60964 8.08786 3.59966 6.21358C3.58968 4.34929 5.13171 2.80315 7.00422 2.79963C7.90888 2.79776 8.77723 3.15534 9.41824 3.79371C10.0592 4.43208 10.4204 5.29895 10.4223 6.20361C10.4242 7.10827 10.0666 7.97661 9.4282 8.61763C8.78983 9.25864 7.92297 9.6198 7.01831 9.62167H7.0189ZM5.03603 6.20713C5.04348 6.72697 5.25486 7.22308 5.62462 7.58855C5.99439 7.95402 6.49293 8.1596 7.01282 8.16098C7.53271 8.16237 8.03234 7.95945 8.40405 7.59596C8.77575 7.23246 8.98978 6.73749 9 6.21769C9.01467 5.13528 8.09251 4.20783 7.01185 4.21839C6.48722 4.22364 5.98576 4.43525 5.61598 4.80745C5.2462 5.17964 5.03786 5.68248 5.03603 6.20713Z" fill="#1C1C1C"/>
<path d="M0 21.3255V2.672C0.0176336 2.63803 0.0319824 2.60245 0.0428507 2.56575C0.277648 1.33306 1.00141 0.530056 2.18186 0.130313C2.34152 0.0757223 2.50822 0.0428506 2.67141 0H21.3249C21.3587 0.0178903 21.3943 0.0320612 21.4311 0.0422636C22.1465 0.157252 22.7975 0.523332 23.2674 1.07485C23.7372 1.62637 23.9952 2.32725 23.9951 3.05178C23.9975 9.01994 23.9975 14.9877 23.9951 20.9551C23.9933 21.7607 23.6725 22.5328 23.1029 23.1025C22.5333 23.6722 21.7613 23.9931 20.9557 23.9951C14.9883 23.9987 9.02053 23.9987 3.05237 23.9951C2.39172 23.9947 1.74898 23.7803 1.22049 23.3838C0.691991 22.9874 0.306198 22.4304 0.120921 21.7963C0.0757225 21.6407 0.0405026 21.4822 0 21.3255ZM22.5347 13.0459L22.5828 13.0295V12.8534C22.5828 9.6359 22.5816 6.41858 22.5793 3.20146C22.5808 3.0147 22.5575 2.82857 22.51 2.64793C22.2893 1.85197 21.6677 1.41524 20.7702 1.41524C14.9214 1.41524 9.07238 1.41524 3.22318 1.41524C3.02874 1.41319 2.83489 1.43708 2.64675 1.48627C1.85079 1.70639 1.41407 2.32802 1.41407 3.2267C1.41407 7.56068 1.41407 11.8946 1.41407 16.2286C1.41407 16.2949 1.42111 16.3613 1.42639 16.4575C1.50094 16.4024 1.55142 16.3695 1.59662 16.3308C2.75065 15.3501 3.90507 14.3688 5.05989 13.387C5.85996 12.7055 6.79856 12.6861 7.61683 13.3453C8.0606 13.7028 8.49438 14.072 8.93346 14.4354C9.27978 14.7224 9.62669 15.0088 10.0094 15.3252C10.062 15.2475 10.1195 15.1732 10.1814 15.1028C12.2198 13.0577 14.2606 11.0144 16.3037 8.97279C16.4584 8.80772 16.6345 8.66419 16.8273 8.54605C17.7026 8.05062 18.6429 8.26311 19.3221 9.09606C20.0969 10.0458 20.8696 10.9971 21.6401 11.95C21.9379 12.3151 22.2361 12.6804 22.5347 13.0459ZM11.9841 22.5828C14.8967 22.5828 17.8094 22.5819 20.722 22.5799C20.932 22.5839 21.1416 22.5604 21.3454 22.51C22.1267 22.297 22.5781 21.6806 22.5781 20.8189C22.584 19.0622 22.584 17.3054 22.5781 15.5483C22.5758 15.4343 22.5373 15.3239 22.4684 15.2331C21.0596 13.4905 19.6486 11.7504 18.2355 10.0129C17.9039 9.60557 17.6891 9.59735 17.3169 9.97009L11.8702 15.4227C11.434 15.8594 11.0003 16.2985 10.5612 16.7311C10.2425 17.0451 9.88673 17.0598 9.53278 16.7845C9.47408 16.7364 9.41186 16.6865 9.3514 16.6366C8.4803 15.9134 7.6092 15.1906 6.7381 14.4682C6.46104 14.2399 6.27261 14.2281 6.02784 14.4359C4.52709 15.7085 3.02967 16.9847 1.53558 18.2643C1.46537 18.3311 1.42337 18.4223 1.41818 18.5191C1.40918 19.2919 1.408 20.065 1.41465 20.8383C1.41935 21.4059 1.61658 21.8884 2.07972 22.243C2.42487 22.5071 2.82461 22.5822 3.24549 22.5828H11.9841Z" fill="#1C1C1C"/>
</svg>
