<svg width="16" height="14" viewBox="0 0 16 14" fill="none" xmlns="http://www.w3.org/2000/svg">
<path d="M16 13.5887C15.9252 13.6907 15.8665 13.8135 15.773 13.8903C15.5145 14.098 15.15 13.9996 14.984 13.6894C14.8181 13.3792 14.6605 13.065 14.4968 12.754C13.7336 11.302 12.5249 10.4453 10.9634 10.0569C10.0004 9.81821 9.02094 9.72246 8.00454 9.69999V9.89463C8.00454 11.0544 8.00098 12.2146 8.00721 13.3747C8.00721 13.6368 7.92488 13.8395 7.68458 13.9465C7.44427 14.0535 7.2369 13.9735 7.04866 13.7977C5.38729 12.2451 3.72341 10.694 2.057 9.14439C1.45357 8.5822 0.850286 8.01942 0.247151 7.45603C-0.0808199 7.14947 -0.0825998 6.84155 0.243146 6.53813C2.48985 4.44311 4.73714 2.34869 6.98502 0.254872C7.0847 0.162273 7.19818 0.084508 7.30498 0H7.60492C7.90619 0.123615 8.01255 0.347921 8.00943 0.674266C7.99697 1.82277 8.00454 2.97126 8.00454 4.11931V4.29417C8.38591 4.32115 8.74503 4.34452 9.10415 4.37194C10.0347 4.44251 10.9478 4.60658 11.8325 4.91405C13.657 5.54786 14.8982 6.76064 15.4776 8.63914C15.741 9.48827 15.8692 10.3585 15.9332 11.2414C15.9537 11.5196 15.9777 11.7974 16 12.0752V13.5887ZM14.8723 11.3209C14.8127 10.5707 14.7264 9.86721 14.5337 9.1808C14.2471 8.16221 13.742 7.28791 12.8792 6.65365C12.237 6.18167 11.5112 5.90297 10.7458 5.71688C9.68266 5.45751 8.59862 5.39907 7.51102 5.38244C7.14567 5.3766 6.93919 5.16532 6.93919 4.79313C6.93919 3.85725 6.93919 2.92137 6.93919 1.98549V1.77422L1.33475 6.99663L6.93874 12.219V11.9911C6.93874 11.0442 6.93874 10.0971 6.93874 9.14979C6.93874 8.85176 7.15724 8.61532 7.44249 8.61037C8.77217 8.59779 10.0907 8.70028 11.379 9.05359C12.5325 9.36825 13.5738 9.89283 14.4051 10.7833C14.5582 10.9474 14.6979 11.1195 14.8723 11.3209Z" fill="white"/>
</svg>
