<svg width="23" height="21" viewBox="0 0 23 21" fill="none" xmlns="http://www.w3.org/2000/svg">
<path d="M9.5133 20.3746C8.86367 19.5895 8.22777 18.8338 7.6033 18.0704C6.41759 16.6216 5.22093 15.1815 4.0608 13.7114C3.14898 12.5566 2.32592 11.3372 1.71231 9.98376C1.00555 8.42338 0.770288 6.81205 1.23869 5.13342C1.74874 3.30496 2.77375 1.89446 4.5522 1.15973C6.44653 0.377649 8.75839 0.805549 10.1473 2.51605C10.6157 3.10281 11 3.754 11.2889 4.45044C11.5034 4.95197 11.9555 5.18252 12.41 5.00074C12.6019 4.92264 12.782 4.7631 12.9264 4.60263C13.51 3.95321 14.1621 3.39686 14.9391 3.00279C16.8111 2.0526 19.2452 2.51551 20.6634 4.07114C21.7405 5.2534 22.1937 6.65975 22.17 8.25335C22.1437 10.0699 21.4366 11.5987 20.2354 12.9163C19.0929 14.1705 17.7406 15.1632 16.331 16.0706C14.0788 17.5223 11.8012 18.9317 9.5133 20.3746Z" fill="#f3f2f2"/>
</svg>
