<svg width="14" height="10" viewBox="0 0 14 10" fill="none" xmlns="http://www.w3.org/2000/svg">
<path d="M13.3462 4.98605C12.906 3.91703 12.2278 2.9764 11.3705 2.24239L11.3704 2.2424L11.3678 2.24014C10.5864 1.56331 9.6722 1.07964 8.69277 0.822559L8.69085 0.822048C7.86595 0.602604 7.00977 0.54521 6.16537 0.652564L6.16135 0.653049C5.07478 0.783713 4.03269 1.18845 3.12466 1.83478L3.12467 1.8348L3.12134 1.83714C2.21858 2.47052 1.47103 3.32256 0.943175 4.32403L0.943192 4.32403L0.940884 4.32833C0.827858 4.53861 0.732867 4.75771 0.62734 5.00229C1.23059 6.45048 2.17539 7.57573 3.46632 8.38916L3.46641 8.38922C4.32565 8.93086 5.28853 9.2622 6.2837 9.36036L6.28596 9.36059C7.59171 9.49437 8.83092 9.27107 10.006 8.6714L10.006 8.67138C11.1496 8.08792 12.0756 7.24064 12.7662 6.11961L12.7663 6.11938C12.9251 5.86183 13.0488 5.60348 13.1872 5.31464C13.2375 5.20962 13.2897 5.10056 13.3462 4.98605Z" stroke="white" stroke-width="1.2"/>
<circle cx="7" cy="5" r="2.4" stroke="white" stroke-width="1.2"/>
</svg>
