<svg width="15" height="12" viewBox="0 0 15 12" fill="none" xmlns="http://www.w3.org/2000/svg">
<path d="M12.6563 11.3027H2.34375C2.11523 11.2287 2.03086 11.0698 2.04199 10.8309C2.05488 10.5566 2.05518 10.2806 2.04199 10.0051C2.03083 9.76218 2.00441 9.52017 1.96289 9.28056C1.90664 8.96265 1.82842 8.64887 1.75781 8.33362C1.47813 7.06316 1.19834 5.79251 0.918457 4.52166C0.901172 4.44292 0.87334 4.41402 0.792773 4.39367C0.402246 4.29517 0.148242 4.04598 0.0310547 3.65641C0.0228516 3.62869 0.0105469 3.60244 0 3.5756V3.19281C0.0121412 3.16717 0.022899 3.14089 0.0322265 3.11407C0.184277 2.59946 0.660937 2.29394 1.19385 2.37032C1.67842 2.43992 2.054 2.89231 2.04346 3.41223C2.0417 3.51633 2.09121 3.54582 2.16416 3.58268C3.07471 4.03939 3.98477 4.49718 4.89434 4.95606C4.92773 4.97287 4.96348 4.98555 5.00596 5.00265L6.94805 2.2096C6.91055 2.18011 6.88008 2.15592 6.8502 2.13115C6.72024 2.02459 6.61829 1.88752 6.5533 1.73199C6.48832 1.57646 6.46229 1.40725 6.47751 1.23922C6.49273 1.07119 6.54873 0.909502 6.64058 0.76837C6.73244 0.627238 6.85734 0.510986 7.0043 0.429839C7.096 0.37882 7.19707 0.344611 7.29375 0.302734H7.70391C7.73818 0.31748 7.77158 0.334879 7.80674 0.34697C8.25352 0.498257 8.53447 0.891367 8.52188 1.36469C8.5125 1.7233 8.34229 1.99844 8.05811 2.20281C8.06081 2.21445 8.06484 2.22573 8.07012 2.23643C8.69316 3.13393 9.31582 4.03153 9.93809 4.92922C9.99375 5.00973 10.0406 4.99056 10.1077 4.95694C11.0222 4.49512 11.9372 4.03477 12.8528 3.5759C12.9293 3.53756 12.9539 3.49391 12.9527 3.40662C12.9481 3.15917 13.0321 2.91831 13.1894 2.72809C13.3467 2.53788 13.5668 2.41103 13.8094 2.37076C14.052 2.33048 14.3008 2.37947 14.5105 2.50876C14.7201 2.63805 14.8765 2.83901 14.9511 3.07485C14.9648 3.11525 14.9836 3.15359 15 3.19281V3.57619C14.9886 3.60804 14.9766 3.6396 14.9663 3.67174C14.8509 4.0271 14.6262 4.28013 14.2632 4.37391C14.1231 4.40989 14.0874 4.48214 14.0599 4.60659C13.7962 5.82574 13.5387 7.04694 13.2519 8.26078C13.0515 9.10834 12.8889 9.9556 12.9568 10.8318C12.9747 11.0695 12.8845 11.2284 12.6563 11.3027ZM1.3541 3.38893C1.35439 3.34457 1.34582 3.30061 1.32889 3.25966C1.31197 3.2187 1.28704 3.18159 1.25558 3.15053C1.22412 3.11947 1.18678 3.0951 1.14578 3.07885C1.10477 3.06261 1.06094 3.05483 1.01689 3.05598C0.972898 3.05663 0.929465 3.06605 0.889104 3.08369C0.848743 3.10133 0.812255 3.12685 0.781746 3.15876C0.751237 3.19068 0.727313 3.22836 0.711354 3.26964C0.695396 3.31092 0.68772 3.35497 0.68877 3.39925C0.688696 3.44353 0.697516 3.48737 0.7147 3.52813C0.731884 3.5689 0.757077 3.60574 0.788766 3.63646C0.820455 3.66717 0.857985 3.69112 0.899101 3.70686C0.940218 3.7226 0.984071 3.72982 1.02803 3.72807C1.07193 3.72864 1.11548 3.72017 1.15602 3.70319C1.19655 3.6862 1.23321 3.66106 1.26374 3.6293C1.29428 3.59754 1.31804 3.55984 1.33358 3.51851C1.34912 3.47717 1.3561 3.43308 1.3541 3.38893ZM14.3112 3.39129C14.3112 3.34697 14.3025 3.30309 14.2855 3.26219C14.2686 3.22129 14.2437 3.18419 14.2124 3.15303C14.1811 3.12187 14.144 3.09728 14.1031 3.08067C14.0623 3.06406 14.0186 3.05577 13.9746 3.05627C13.9306 3.05621 13.887 3.06506 13.8464 3.0823C13.8059 3.09954 13.7692 3.12481 13.7385 3.15661C13.7078 3.18842 13.6838 3.2261 13.6679 3.26743C13.652 3.30876 13.6445 3.35289 13.6459 3.39718C13.6446 3.44147 13.6525 3.48554 13.6689 3.52664C13.6853 3.56775 13.71 3.605 13.7414 3.63608C13.7727 3.66715 13.8101 3.69139 13.8512 3.70727C13.8923 3.72315 13.9362 3.73033 13.9802 3.72836C14.0242 3.72906 14.0678 3.72078 14.1086 3.70404C14.1493 3.6873 14.1862 3.66243 14.2172 3.63094C14.2481 3.59944 14.2724 3.56198 14.2885 3.52079C14.3047 3.47961 14.3124 3.43555 14.3112 3.39129ZM7.83135 1.33078C7.83018 1.2648 7.80962 1.20066 7.77226 1.14644C7.7349 1.09222 7.68241 1.05037 7.62143 1.02616C7.56045 1.00195 7.49371 0.996475 7.42964 1.01043C7.36557 1.02438 7.30705 1.05713 7.26146 1.10454C7.21587 1.15195 7.18526 1.2119 7.1735 1.27682C7.16174 1.34173 7.16935 1.4087 7.19538 1.46926C7.22141 1.52982 7.26468 1.58126 7.31973 1.61708C7.37478 1.6529 7.43914 1.67149 7.50469 1.67051C7.54869 1.67116 7.59236 1.66274 7.633 1.64575C7.67365 1.62877 7.7104 1.60359 7.74101 1.57176C7.77161 1.53993 7.79542 1.50212 7.81096 1.46068C7.82649 1.41923 7.83343 1.37502 7.83135 1.33078Z" fill="#F1A027"/>
</svg>
