<svg width="16" height="20" viewBox="0 0 16 20" fill="none" xmlns="http://www.w3.org/2000/svg">
<path d="M3.86084 4.49601C3.77294 3.08432 4.18077 1.88473 5.23063 0.959568C5.93356 0.32781 6.84219 -0.01415 7.77912 0.000448877C8.95291 0.00601544 9.93889 0.461917 10.7201 1.35424C11.5014 2.24656 11.7711 3.30587 11.6968 4.49601C12.1915 4.49601 12.6599 4.48933 13.1278 4.49601C13.6059 4.50566 14.0636 4.69545 14.4126 5.02879C14.7616 5.36213 14.9772 5.81541 15.0179 6.30124C15.0539 6.76438 15.0725 7.22974 15.0932 7.69288C15.1998 9.9748 15.3052 12.2571 15.4093 14.5398C15.4606 15.6564 15.5185 16.7731 15.5562 17.8903C15.5982 19.0871 14.7372 19.9961 13.5624 19.9972C9.7065 20.0009 5.85064 20.0009 1.99479 19.9972C0.820995 19.9972 -0.0481566 19.0832 0.00207071 17.8897C0.101433 15.5239 0.217175 13.1581 0.325273 10.7935C0.385873 9.47585 0.442106 8.15769 0.505982 6.8412C0.50994 6.56379 0.537154 6.28724 0.587328 6.01456C0.685244 5.58859 0.919639 5.20805 1.25345 4.93312C1.58725 4.6582 2.00142 4.50458 2.43045 4.49656C2.89342 4.48988 3.35638 4.49601 3.86084 4.49601ZM7.77912 18.6674H13.522C14.0051 18.6674 14.2639 18.389 14.247 17.897C14.2399 17.6815 14.2328 17.4667 14.223 17.2512L13.9101 10.4884C13.8484 9.16357 13.7911 7.83873 13.7234 6.51389C13.6988 6.03349 13.4379 5.7997 12.9716 5.80137C11.9496 5.80582 10.9278 5.8099 9.90614 5.81361L2.56912 5.83198C2.11053 5.83198 1.86267 6.06299 1.83428 6.5356C1.80152 7.07611 1.78459 7.61773 1.76003 8.1588C1.61116 11.3915 1.46212 14.624 1.3129 17.8563C1.28778 18.4052 1.53728 18.6674 2.07722 18.6674H7.77912ZM10.3844 4.4871C10.4788 3.27192 10.1114 2.28719 9.06101 1.68266C8.09631 1.12601 7.11688 1.1967 6.22207 1.86413C5.35783 2.50763 5.07994 3.42277 5.17822 4.4871H10.3844Z" fill="white"/>
<path d="M7.78326 11.2293C6.89678 11.2248 6.03749 10.9167 5.34321 10.3547C4.64893 9.79266 4.15989 9.00917 3.95452 8.12987C3.87099 7.76971 3.97854 7.47858 4.2537 7.32104C4.51411 7.17186 4.86844 7.21305 5.05679 7.44518C5.14597 7.56585 5.21023 7.70371 5.24569 7.85043C5.53832 8.91198 6.19673 9.59333 7.25423 9.84215C8.58417 10.1544 9.95286 9.30442 10.3115 7.96176C10.3274 7.90164 10.341 7.84041 10.3563 7.78029C10.4611 7.37782 10.7931 7.16462 11.1752 7.25369C11.5317 7.33663 11.7381 7.69902 11.6415 8.09647C11.3139 9.4408 10.5277 10.3888 9.27315 10.9215C9.02702 11.0209 8.77193 11.0955 8.51155 11.1442C8.27297 11.196 8.02621 11.2032 7.78326 11.2293Z" fill="white"/>
</svg>
