<svg width="21" height="20" viewBox="0 0 21 20" fill="none" xmlns="http://www.w3.org/2000/svg">
<path d="M12.5075 0.00164317C13.0552 0.175278 13.4211 0.528026 13.5482 1.09713C13.5877 1.26988 13.6088 1.44632 13.6112 1.62352C13.6145 7.10352 13.6145 12.5837 13.6112 18.0641C13.6094 18.2617 13.5823 18.4583 13.5307 18.6491C13.3116 19.4586 12.5842 19.8585 11.7834 19.6022C11.5705 19.5306 11.3672 19.4331 11.1781 19.3118C8.97069 17.9366 6.76493 16.5591 4.5608 15.1791C4.45737 15.1175 4.3399 15.0834 4.21955 15.08C3.47517 15.0624 2.72804 15.0893 1.9864 15.0394C0.923225 14.9677 0.010681 13.9708 0.00629907 12.9093C-0.00209969 10.8592 -0.00209969 8.8092 0.00629907 6.75917C0.010681 5.70915 0.924868 4.71116 1.97489 4.63995C2.71709 4.58956 3.46367 4.61694 4.20805 4.59832C4.33511 4.59499 4.45919 4.55916 4.56847 4.49425C6.76383 3.12489 8.95372 1.7484 11.1513 0.383422C11.4071 0.224576 11.699 0.125981 11.9773 0L12.5075 0.00164317ZM12.3684 9.84079C12.3684 7.1426 12.3669 4.44459 12.364 1.74676C12.364 1.58243 12.3059 1.41811 12.2747 1.25379C12.1208 1.3113 11.9515 1.34526 11.8146 1.43071C9.66012 2.77086 7.50767 4.11466 5.35722 5.46211C5.30156 5.49153 5.25588 5.53679 5.22595 5.59217C5.19601 5.64755 5.18318 5.71056 5.18906 5.77323C5.19344 8.48457 5.19344 11.1963 5.18906 13.9083C5.18328 13.971 5.19629 14.0339 5.22644 14.0892C5.25658 14.1444 5.30249 14.1894 5.35832 14.2184C7.53505 15.576 9.71015 16.9365 11.8836 18.2996C11.9602 18.343 12.0392 18.3822 12.1202 18.4168C12.2615 18.4848 12.3273 18.4168 12.3432 18.2837C12.3589 18.1549 12.3669 18.0252 12.3673 17.8954C12.3684 15.2103 12.3687 12.5255 12.3684 9.84079ZM3.9298 13.8174V5.85649C3.39903 5.85649 2.88032 5.87621 2.36379 5.85156C1.68569 5.81815 1.20915 6.33522 1.22613 6.9843C1.24201 7.57805 1.22941 8.17236 1.22941 8.76666C1.22941 10.0911 1.22941 11.4159 1.22941 12.7411C1.22941 13.2965 1.57942 13.7752 2.07787 13.8076C2.6897 13.8475 3.30482 13.8174 3.9298 13.8174Z" fill="white"/>
<path d="M20.9965 10.5803C20.9417 10.9637 20.8985 11.3471 20.8289 11.7305C20.4405 13.8667 19.4667 15.7 17.9467 17.2458C17.6854 17.512 17.2948 17.5131 17.0484 17.266C16.8019 17.019 16.8013 16.6471 17.0719 16.3699C18.1493 15.2662 18.9518 13.9916 19.3598 12.5017C20.2895 9.11303 19.5775 6.10554 17.2236 3.47929C17.1645 3.41301 17.0993 3.35221 17.0401 3.28593C16.8041 3.02192 16.8084 2.65602 17.0484 2.4183C17.2976 2.17182 17.6837 2.17729 17.9472 2.44186C19.6844 4.18177 20.7506 6.47987 20.9571 8.9299C20.9656 8.98917 20.9784 9.04775 20.9954 9.10518L20.9965 10.5803Z" fill="white"/>
<path d="M18.3747 9.69754C18.3369 11.9685 17.598 13.8138 16.1114 15.353C15.8375 15.6367 15.4601 15.6608 15.1988 15.4171C14.9376 15.1733 14.9414 14.779 15.2224 14.4898C16.2127 13.471 16.8432 12.2637 17.0447 10.8593C17.3252 8.90276 16.8487 7.14012 15.5883 5.60095C15.4634 5.44758 15.3232 5.30681 15.1901 5.16276C14.9458 4.89436 14.9447 4.51806 15.1873 4.27815C15.43 4.03824 15.8238 4.03824 16.0851 4.30608C17.3153 5.5659 18.069 7.06179 18.2914 8.81457C18.3325 9.15308 18.3555 9.49323 18.3747 9.69754Z" fill="white"/>
</svg>
