<svg width="28" height="18" viewBox="0 0 28 18" fill="none" xmlns="http://www.w3.org/2000/svg">
<path d="M24 15C24.9313 14.302 25.6874 13.3963 26.2081 12.3548C26.7289 11.3133 27 10.1647 27 9C27 7.83534 26.7289 6.68671 26.2081 5.64522C25.6874 4.60373 24.9313 3.69804 24 3" stroke="white" stroke-width="1.2" stroke-miterlimit="10" stroke-linecap="round" stroke-linejoin="round"/>
<path d="M23 12C23.3104 11.651 23.5625 11.1981 23.736 10.6774C23.9096 10.1566 24 9.58233 24 9C24 8.41767 23.9096 7.84335 23.736 7.32261C23.5625 6.80186 23.3104 6.34902 23 6" stroke="white" stroke-width="1.2" stroke-miterlimit="10" stroke-linecap="round" stroke-linejoin="round"/>
<path d="M1.97681 12V6.4H3.00081V11.2H5.48081V12H1.97681ZM7.18306 12V6.4H8.20706V12H7.18306ZM11.7164 12L9.66844 6.4H10.7644L12.3484 10.952L13.9404 6.4H15.0204L12.9724 12H11.7164ZM16.4862 12V6.4H20.1422V7.224H17.5102V8.76H19.9022V9.56H17.5102V11.176H20.1422V12H16.4862Z" fill="white"/>
<path d="M1.97681 12H1.77681V12.2H1.97681V12ZM1.97681 6.4V6.2H1.77681V6.4H1.97681ZM3.00081 6.4H3.20081V6.2H3.00081V6.4ZM3.00081 11.2H2.80081V11.4H3.00081V11.2ZM5.48081 11.2H5.68081V11H5.48081V11.2ZM5.48081 12V12.2H5.68081V12H5.48081ZM2.17681 12V6.4H1.77681V12H2.17681ZM1.97681 6.6H3.00081V6.2H1.97681V6.6ZM2.80081 6.4V11.2H3.20081V6.4H2.80081ZM3.00081 11.4H5.48081V11H3.00081V11.4ZM5.28081 11.2V12H5.68081V11.2H5.28081ZM5.48081 11.8H1.97681V12.2H5.48081V11.8ZM7.18306 12H6.98306V12.2H7.18306V12ZM7.18306 6.4V6.2H6.98306V6.4H7.18306ZM8.20706 6.4H8.40706V6.2H8.20706V6.4ZM8.20706 12V12.2H8.40706V12H8.20706ZM7.38306 12V6.4H6.98306V12H7.38306ZM7.18306 6.6H8.20706V6.2H7.18306V6.6ZM8.00706 6.4V12H8.40706V6.4H8.00706ZM8.20706 11.8H7.18306V12.2H8.20706V11.8ZM11.7164 12L11.5286 12.0687L11.5766 12.2H11.7164V12ZM9.66844 6.4V6.2H9.38234L9.48061 6.46869L9.66844 6.4ZM10.7644 6.4L10.9533 6.33427L10.9066 6.2H10.7644V6.4ZM12.3484 10.952L12.1595 11.0177L12.348 11.5592L12.5372 11.018L12.3484 10.952ZM13.9404 6.4V6.2H13.7985L13.7517 6.33397L13.9404 6.4ZM15.0204 6.4L15.2083 6.46869L15.3065 6.2H15.0204V6.4ZM12.9724 12V12.2H13.1123L13.1603 12.0687L12.9724 12ZM11.9043 11.9313L9.85627 6.33131L9.48061 6.46869L11.5286 12.0687L11.9043 11.9313ZM9.66844 6.6H10.7644V6.2H9.66844V6.6ZM10.5755 6.46573L12.1595 11.0177L12.5373 10.8863L10.9533 6.33427L10.5755 6.46573ZM12.5372 11.018L14.1292 6.46603L13.7517 6.33397L12.1597 10.886L12.5372 11.018ZM13.9404 6.6H15.0204V6.2H13.9404V6.6ZM14.8326 6.33131L12.7846 11.9313L13.1603 12.0687L15.2083 6.46869L14.8326 6.33131ZM12.9724 11.8H11.7164V12.2H12.9724V11.8ZM16.4862 12H16.2862V12.2H16.4862V12ZM16.4862 6.4V6.2H16.2862V6.4H16.4862ZM20.1422 6.4H20.3422V6.2H20.1422V6.4ZM20.1422 7.224V7.424H20.3422V7.224H20.1422ZM17.5102 7.224V7.024H17.3102V7.224H17.5102ZM17.5102 8.76H17.3102V8.96H17.5102V8.76ZM19.9022 8.76H20.1022V8.56H19.9022V8.76ZM19.9022 9.56V9.76H20.1022V9.56H19.9022ZM17.5102 9.56V9.36H17.3102V9.56H17.5102ZM17.5102 11.176H17.3102V11.376H17.5102V11.176ZM20.1422 11.176H20.3422V10.976H20.1422V11.176ZM20.1422 12V12.2H20.3422V12H20.1422ZM16.6862 12V6.4H16.2862V12H16.6862ZM16.4862 6.6H20.1422V6.2H16.4862V6.6ZM19.9422 6.4V7.224H20.3422V6.4H19.9422ZM20.1422 7.024H17.5102V7.424H20.1422V7.024ZM17.3102 7.224V8.76H17.7102V7.224H17.3102ZM17.5102 8.96H19.9022V8.56H17.5102V8.96ZM19.7022 8.76V9.56H20.1022V8.76H19.7022ZM19.9022 9.36H17.5102V9.76H19.9022V9.36ZM17.3102 9.56V11.176H17.7102V9.56H17.3102ZM17.5102 11.376H20.1422V10.976H17.5102V11.376ZM19.9422 11.176V12H20.3422V11.176H19.9422ZM20.1422 11.8H16.4862V12.2H20.1422V11.8Z" fill="white"/>
<path d="M19 14L19 16C19 16.5523 18.5523 17 18 17L4 17C3.44772 17 3 16.5523 3 16L3 14" stroke="white" stroke-width="1.2" stroke-linecap="round"/>
<path d="M3 4L3 2C3 1.44772 3.44772 1 4 1L18 1C18.5523 1 19 1.44772 19 2L19 4" stroke="white" stroke-width="1.2" stroke-linecap="round"/>
</svg>
