<svg width="25" height="25" viewBox="0 0 25 25" fill="none" xmlns="http://www.w3.org/2000/svg">
    <g clip-path="url(#clip0_34_2542)">
    <path d="M11.6171 0.0012207H13.3743C13.4258 0.0215368 13.4793 0.0365009 13.5339 0.0458775C14.4008 0.104371 15.258 0.263052 16.0884 0.518754C22.1006 2.33624 25.988 8.36616 24.7774 14.8604C24.3714 17.0382 23.4531 18.9921 21.9765 20.645C18.7971 24.2047 14.8228 25.575 10.1277 24.7816C7.95343 24.4146 6.0311 23.4474 4.36313 22C2.03972 19.9813 0.62182 17.4585 0.144296 14.4144C0.090491 14.0719 0.0476912 13.7275 0 13.3837V11.6243C0.0189967 11.5641 0.0345115 11.5028 0.046468 11.4408C0.103942 11.0064 0.135125 10.5678 0.218279 10.1384C0.63894 7.96609 1.56342 6.02931 3.01372 4.35804C5.03142 2.04015 7.5505 0.622749 10.5899 0.143756C10.9298 0.090535 11.2741 0.047713 11.6171 0.0012207ZM1.49922 12.4893C1.47843 18.5541 6.38267 23.4762 12.4749 23.5061C18.528 23.5355 23.4537 18.6312 23.4922 12.5309C23.5301 6.46793 18.5941 1.51406 12.5037 1.50182C6.43709 1.4902 1.52 6.39942 1.49922 12.4893Z" fill="#1C1C1C"/>
    <path d="M12.5134 13.0436H18.9046C19.5937 13.0436 19.8493 13.3299 19.8291 14.0162C19.7984 15.598 19.2411 17.1244 18.2455 18.3535C17.0441 19.8565 15.488 20.7741 13.5767 21.0525C11.4532 21.3584 9.54124 20.8365 7.87877 19.4925C6.45536 18.3419 5.57369 16.848 5.27409 15.0268C5.21294 14.6678 5.19399 14.3019 5.1677 13.9379C5.12673 13.3721 5.43367 13.0436 5.99924 13.0436C8.17062 13.0428 10.342 13.0428 12.5134 13.0436ZM6.72195 14.5607C7.02766 17.2811 9.45992 19.6834 12.5916 19.6381C15.6855 19.591 18.0022 17.163 18.2779 14.5607H6.72195Z" fill="#1C1C1C"/>
    <path d="M7.49952 8.28723C8.40382 8.28723 9.11919 8.57169 9.7245 9.1296C10.0718 9.45015 10.1128 9.89366 9.83333 10.2148C9.55391 10.536 9.09962 10.5819 8.7505 10.2589C8.15986 9.71136 7.32832 9.66915 6.77009 10.0099C6.63476 10.0994 6.50452 10.1964 6.38 10.3005C6.048 10.5568 5.62 10.5268 5.34852 10.2258C5.2185 10.0828 5.14966 9.89443 5.15675 9.70118C5.16383 9.50794 5.24628 9.32515 5.38643 9.19199C5.99297 8.59371 6.72729 8.29457 7.49952 8.28723Z" fill="#1C1C1C"/>
    <path d="M17.4637 8.28723C18.2541 8.29004 19.0122 8.60176 19.5761 9.1559C19.9008 9.46544 19.9289 9.91568 19.6514 10.2246C19.3738 10.5335 18.9256 10.5739 18.5863 10.2662C17.9467 9.68689 17.1482 9.67832 16.5857 10.0154C16.4512 10.1062 16.3214 10.2038 16.1968 10.3078C15.8587 10.5605 15.4344 10.5219 15.1666 10.2167C15.038 10.0717 14.9715 9.88205 14.9814 9.68853C14.9914 9.49501 15.077 9.31315 15.2198 9.1822C15.8281 8.58943 16.5624 8.28968 17.4637 8.28723Z" fill="#1C1C1C"/>
    </g>
    <defs>
    <clipPath id="clip0_34_2542">
    <rect width="25" height="25" fill="white"/>
    </clipPath>
    </defs>
</svg>
    