<svg width="16" height="18" viewBox="0 0 16 18" fill="none" xmlns="http://www.w3.org/2000/svg">
<path d="M12.698 18C12.3754 17.8996 12.0348 17.8393 11.7326 17.6918C10.405 17.0429 9.73926 15.5347 10.0965 14.0379C10.1061 13.9982 10.1153 13.9586 10.1283 13.9031C10.084 13.8767 10.0389 13.8464 9.99135 13.8208C8.52387 13.0301 7.05695 12.2377 5.59059 11.4435C5.46204 11.3735 5.40611 11.3995 5.32138 11.5082C4.48414 12.5983 3.12726 12.969 1.87932 12.4574C0.696489 11.9731 -0.089839 10.6964 0.00824324 9.33171C0.102987 8.01627 0.746156 7.06404 1.91229 6.58726C3.10597 6.09903 4.19281 6.37022 5.12021 7.30309C5.22288 7.4061 5.28716 7.42371 5.41237 7.34403C6.95581 6.35878 8.50147 5.37763 10.0494 4.4006C10.0965 4.37066 10.1429 4.3394 10.1996 4.30242C9.88576 3.38673 9.93417 2.49304 10.3737 1.63898C10.7045 0.978215 11.2557 0.470196 11.9209 0.213048C13.3462 -0.351778 14.8708 0.23594 15.6229 1.62709C16.3279 2.9302 16.0194 4.62688 14.9059 5.60289C13.8124 6.56129 11.9526 6.67707 10.7113 5.219C10.6667 5.24541 10.6187 5.27227 10.5723 5.30176C9.02555 6.28144 7.4785 7.25994 5.93116 8.23727C5.81263 8.31211 5.78592 8.37331 5.8335 8.51198C6.02254 9.06177 6.04988 9.65894 5.91196 10.2254C5.87816 10.3711 5.90487 10.4398 6.03467 10.5093C7.48963 11.2868 8.94264 12.0684 10.3937 12.8541C10.4525 12.8858 10.5131 12.9152 10.5769 12.9483C10.6971 12.8136 10.8065 12.6731 10.9325 12.5521C11.7961 11.7213 12.8024 11.4545 13.9117 11.8318C15.0332 12.2131 15.721 13.0548 15.9452 14.2782C16.2649 16.0224 15.0966 17.7156 13.4251 17.9648C13.3827 17.9736 13.3409 17.9853 13.2999 17.9996L12.698 18ZM12.9964 1.05434C12.6013 1.05513 12.2152 1.17939 11.8869 1.41145C11.5587 1.64352 11.3029 1.97297 11.1521 2.35821C11.0012 2.74345 10.9619 3.1672 11.0392 3.57597C11.1164 3.98475 11.3068 4.3602 11.5862 4.65494C11.8657 4.94967 12.2216 5.15047 12.6092 5.23198C12.9967 5.31349 13.3984 5.27206 13.7637 5.11291C14.1289 4.95376 14.4412 4.68404 14.6612 4.33779C14.8813 3.99155 14.9991 3.58431 14.9998 3.16749C14.9993 2.60723 14.788 2.07008 14.4124 1.67391C14.0368 1.27775 13.5276 1.05493 12.9964 1.05434ZM2.99704 7.41799C2.6017 7.4179 2.2152 7.54143 1.88639 7.77296C1.55758 8.0045 1.30121 8.33364 1.14969 8.71881C0.998171 9.10397 0.958293 9.52787 1.0351 9.93693C1.1119 10.346 1.30194 10.7219 1.5812 11.017C1.86046 11.3122 2.21641 11.5134 2.60406 11.5953C2.99172 11.6772 3.39368 11.636 3.75915 11.477C4.12463 11.318 4.43721 11.0482 4.6574 10.7019C4.87759 10.3556 4.99551 9.94814 4.99625 9.53113C4.99625 8.97146 4.78575 8.43464 4.41095 8.03847C4.03614 7.6423 3.52765 7.41916 2.99704 7.41799ZM10.9981 14.8378C10.9983 15.2548 11.1157 15.6624 11.3355 16.0091C11.5553 16.3558 11.8675 16.626 12.2328 16.7855C12.5981 16.9451 13 16.9869 13.3878 16.9056C13.7756 16.8244 14.1319 16.6237 14.4116 16.329C14.6913 16.0342 14.8819 15.6586 14.9594 15.2497C15.0368 14.8407 14.9976 14.4167 14.8467 14.0313C14.6958 13.6458 14.44 13.3162 14.1116 13.084C13.7831 12.8518 13.3968 12.7275 13.0014 12.7268C12.4707 12.7276 11.9619 12.9502 11.5864 13.3459C11.2109 13.7415 10.9994 14.278 10.9981 14.8378Z" fill="white"/>
</svg>
