<svg width="14" height="10" viewBox="0 0 14 10" fill="none" xmlns="http://www.w3.org/2000/svg">
<path d="M13.3472 4.98605C12.907 3.91703 12.2288 2.9764 11.3714 2.24239L11.3714 2.2424L11.3688 2.24014C10.5874 1.56331 9.67317 1.07964 8.69375 0.822559L8.69183 0.822048C7.86693 0.602604 7.01075 0.54521 6.16635 0.652564L6.16232 0.653049C5.07575 0.783713 4.03367 1.18845 3.12564 1.83478L3.12565 1.8348L3.12231 1.83714C2.21956 2.47052 1.472 3.32256 0.944152 4.32403L0.944169 4.32403L0.94186 4.32833C0.828835 4.53861 0.733844 4.75771 0.628317 5.00229C1.23156 6.45048 2.17636 7.57573 3.4673 8.38916L3.46739 8.38922C4.32663 8.93086 5.2895 9.2622 6.28467 9.36036L6.28693 9.36059C7.59269 9.49437 8.8319 9.27107 10.007 8.6714L10.007 8.67138C11.1505 8.08792 12.0766 7.24064 12.7671 6.11961L12.7673 6.11938C12.9261 5.86183 13.0498 5.60348 13.1881 5.31464C13.2384 5.20962 13.2907 5.10056 13.3472 4.98605Z" stroke="white" stroke-width="1.2"/>
<circle cx="7" cy="5" r="2.4" stroke="white" stroke-width="1.2"/>
</svg>
