<svg width="16" height="29" viewBox="0 0 16 29" fill="none" xmlns="http://www.w3.org/2000/svg">
<path d="M15.7867 14.9885L1.24215 28.7977C1.17458 28.8618 1.09437 28.9127 1.00609 28.9474C0.917806 28.9821 0.823187 29 0.727633 29C0.632079 29 0.537461 28.9821 0.44918 28.9474C0.3609 28.9127 0.280686 28.8618 0.213119 28.7977C0.145552 28.7335 0.0919558 28.6573 0.0553888 28.5735C0.0188218 28.4897 0 28.3999 0 28.3092C0 28.2184 0.0188218 28.1286 0.0553888 28.0448C0.0919558 27.961 0.145552 27.8848 0.213119 27.8207L14.2432 14.5L0.213119 1.17934C0.0766614 1.04978 0 0.874064 0 0.690842C0 0.507619 0.0766614 0.3319 0.213119 0.202343C0.349577 0.0727845 0.534653 0 0.727633 0C0.920614 0 1.10569 0.0727845 1.24215 0.202343L15.7867 14.0115C15.8543 14.0756 15.908 14.1518 15.9446 14.2356C15.9812 14.3194 16 14.4093 16 14.5C16 14.5907 15.9812 14.6806 15.9446 14.7644C15.908 14.8482 15.8543 14.9244 15.7867 14.9885Z" fill="#919191"/>
</svg>
