<svg width="17" height="9" viewBox="0 0 17 9" fill="none" xmlns="http://www.w3.org/2000/svg">
<path d="M8.21364 8.88003L0.118614 0.698707C0.0810089 0.660701 0.0511799 0.615581 0.0308265 0.565923C0.0104751 0.516265 -2.02403e-08 0.463042 -1.78908e-08 0.409293C-1.55413e-08 0.355544 0.0104751 0.302321 0.0308266 0.252663C0.0511799 0.203005 0.0810089 0.157885 0.118614 0.119879C0.156219 0.0818723 0.200865 0.0517244 0.249998 0.0311555C0.299131 0.0105865 0.351793 -7.27716e-07 0.404976 -7.25392e-07C0.458158 -7.23067e-07 0.51082 0.0105866 0.559954 0.0311555C0.609087 0.0517244 0.653732 0.0818723 0.691338 0.119879L8.5 8.01178L16.3087 0.119879C16.3846 0.043122 16.4876 -2.2397e-08 16.595 -1.77021e-08C16.7024 -1.30072e-08 16.8054 0.043122 16.8814 0.119879C16.9573 0.196637 17 0.300742 17 0.409294C17 0.517845 16.9573 0.621951 16.8814 0.698708L8.78636 8.88003C8.74877 8.91806 8.70413 8.94823 8.655 8.96882C8.60586 8.9894 8.55319 9 8.5 9C8.44681 9 8.39414 8.9894 8.345 8.96882C8.29587 8.94823 8.25123 8.91806 8.21364 8.88003Z" fill="#545353"/>
</svg>
