<svg width="16" height="29" viewBox="0 0 16 29" fill="none" xmlns="http://www.w3.org/2000/svg">
<path d="M0.213287 14.0115L14.7579 0.202343C14.8254 0.138191 14.9056 0.087305 14.9939 0.0525874C15.0822 0.0178699 15.1768 -7.19653e-08 15.2724 -6.36117e-08C15.3679 -5.52581e-08 15.4625 0.0178699 15.5508 0.0525875C15.6391 0.087305 15.7193 0.138191 15.7869 0.202343C15.8545 0.266493 15.908 0.342651 15.9446 0.426468C15.9812 0.510284 16 0.600119 16 0.690842C16 0.781565 15.9812 0.871399 15.9446 0.955215C15.908 1.03903 15.8545 1.11519 15.7869 1.17934L1.75683 14.5L15.7869 27.8207C15.9233 27.9502 16 28.1259 16 28.3092C16 28.4924 15.9233 28.6681 15.7869 28.7977C15.6504 28.9272 15.4653 29 15.2724 29C15.0794 29 14.8943 28.9272 14.7579 28.7977L0.213287 14.9885C0.145672 14.9244 0.0920318 14.8482 0.0554345 14.7644C0.0188373 14.6806 1.2597e-06 14.5907 1.26763e-06 14.5C1.27556e-06 14.4093 0.0188373 14.3194 0.0554346 14.2356C0.0920318 14.1518 0.145672 14.0756 0.213287 14.0115Z" fill="#545453"/>
</svg>
