<svg width="12" height="12" viewBox="0 0 12 12" fill="none" xmlns="http://www.w3.org/2000/svg">
<path d="M1.38999 4.68856C2.20467 5.70855 4.10346 7.8114 4.91439 8.8277C4.73287 9.02239 4.58436 9.23973 4.4793 9.4644C4.37424 9.68907 4.3152 9.91562 4.30634 10.1281C4.29442 10.4341 4.38413 10.699 4.56339 10.887C4.68068 11.02 4.8998 10.9673 5.10281 10.7696L7.25469 8.66696L7.44846 8.47646L7.56258 8.58866C7.97699 8.99606 8.38378 9.41094 8.80579 9.81086C9.24695 10.2242 9.68995 10.6365 10.1599 11.0197C10.5687 11.3535 11.0176 11.6479 11.4479 11.9606C11.4639 11.9773 11.4847 11.989 11.509 11.9951C11.5334 12.0012 11.5608 12.0016 11.5897 11.9962C11.6185 11.9908 11.6482 11.9798 11.677 11.9638C11.7058 11.9477 11.7331 11.927 11.7573 11.9029C11.8756 11.7865 12.0524 11.6569 11.9852 11.5105C11.9035 11.3397 11.8048 11.1813 11.6899 11.0366C11.3499 10.6002 11.0066 10.1661 10.6516 9.7436C10.4492 9.50112 10.2261 9.2763 10.0027 9.05263C9.52602 8.57585 9.04105 8.10723 8.56023 7.63454L8.43207 7.50855L8.59332 7.35002L10.8823 5.08687C11.13 4.84331 11.1602 4.64714 10.9729 4.49563C10.7505 4.31516 10.4359 4.24632 10.0821 4.3007C9.72831 4.35508 9.35688 4.52937 9.03028 4.79423C9.00143 4.812 8.97109 4.8237 8.94194 4.82828C8.91279 4.83287 8.88575 4.8302 8.86323 4.82051C8.33916 4.42957 6.72833 2.94273 6.21255 2.5418C5.77446 2.20091 5.34489 1.85072 4.91048 1.50529C4.85886 1.46407 4.8059 1.42969 4.74802 1.38911C5.04824 0.91003 5.10066 0.498921 4.88768 0.165715C4.74447 -0.0539952 4.57826 -0.0745228 4.27885 0.221668C2.95365 1.53276 1.62729 2.84406 0.289925 4.1432C-0.128573 4.54819 -0.051942 4.74598 0.253272 4.88276C0.571543 5.02692 0.954041 4.95529 1.38999 4.68856Z" fill="white"/>
</svg>
