<svg width="18" height="12" viewBox="0 0 18 12" fill="none" xmlns="http://www.w3.org/2000/svg">
<path d="M16.4309 0.500556C16.3348 0.50699 16.2452 0.548806 16.1807 0.616855L6.20981 10.6381L1.07893 5.58314C1.01427 5.50359 0.917397 5.45397 0.81209 5.44643C0.70691 5.439 0.603291 5.47439 0.526938 5.54379C0.450714 5.61333 0.409032 5.71045 0.412151 5.81091C0.415397 5.9115 0.463183 6.00589 0.543689 6.07097L5.94217 11.392C6.01242 11.461 6.10889 11.5 6.20979 11.5C6.31069 11.5 6.40729 11.461 6.47741 11.392L16.7159 1.10469C16.8245 1.00039 16.8545 0.843264 16.7912 0.709285C16.7281 0.575294 16.5848 0.492264 16.4309 0.500556Z" fill="#545353" stroke="#545353" stroke-width="0.5"/>
</svg>
