<svg width="10" height="13" viewBox="0 0 10 13" fill="none" xmlns="http://www.w3.org/2000/svg">
<path d="M5.08985 12.5636H4.99625C4.93507 12.528 4.87708 12.4837 4.81201 12.4579C4.41249 12.2995 4.00818 12.1527 3.6477 11.9127C3.35776 11.72 3.06097 11.5376 2.77674 11.337C2.34572 11.0326 1.98067 10.6589 1.6558 10.2432C1.38305 9.89461 1.14725 9.51864 0.952191 9.12134C0.747365 8.69885 0.583387 8.25775 0.462493 7.80406C0.194244 6.82238 0.107491 5.81559 0.0944777 4.80378C0.0828345 3.90451 0.105208 3.00502 0.113198 2.10576C0.114723 2.08273 0.117928 2.05984 0.122786 2.03727C0.413866 2.01056 0.695356 1.98636 0.976619 1.95874C1.73 1.88431 2.46055 1.74208 3.1491 1.40512C3.56163 1.20284 3.96252 0.987332 4.31935 0.697395C4.47527 0.57069 4.62595 0.437364 4.77754 0.30518C4.86749 0.226646 4.95447 0.145372 5.0451 0.0625C5.08392 0.0981144 5.11359 0.12825 5.14647 0.155645C5.46038 0.418872 5.75808 0.705385 6.09345 0.937564C6.40438 1.14852 6.7346 1.32953 7.07969 1.47817C7.7171 1.75898 8.39468 1.89733 9.08871 1.9576C9.38093 1.98339 9.67315 2.0101 9.97907 2.0375C9.97907 2.1537 9.97747 2.26968 9.97907 2.38565C9.99984 3.67759 10.0434 4.96975 9.90715 6.25894C9.83159 6.97169 9.69278 7.66982 9.46015 8.34855C9.2135 9.0738 8.84101 9.74992 8.35975 10.3459C8.00703 10.7827 7.59016 11.1571 7.13494 11.4826C6.84794 11.6872 6.54717 11.8717 6.23476 12.0349C5.93295 12.1928 5.61014 12.3104 5.29874 12.4488C5.22432 12.4807 5.15834 12.525 5.08985 12.5636Z" fill="#00D03A"/>
</svg>
