<svg width="23" height="23" viewBox="0 0 23 23" fill="none" xmlns="http://www.w3.org/2000/svg">
<path d="M22.9988 5.7944C22.9634 5.93002 22.931 6.06684 22.892 6.20126C22.7426 6.72124 22.462 7.19406 22.077 7.57425C18.3248 11.3284 14.572 15.0819 10.8186 18.8348C10.1531 19.5003 9.1167 19.2465 8.88206 18.3656C8.83394 18.1993 8.82704 18.0239 8.86197 17.8544C8.89689 17.6849 8.97258 17.5265 9.0825 17.3928C9.15454 17.3067 9.23127 17.2245 9.31234 17.1468C12.1816 14.2776 15.0507 11.409 17.9196 8.54099C17.9848 8.48494 18.0551 8.43512 18.1296 8.39217L14.589 4.85167C14.5584 4.91168 14.5356 4.99869 14.4798 5.0545C10.6128 8.92664 6.74291 12.7962 2.87027 16.6631C2.4358 17.097 2.22697 17.592 2.24257 18.2083C2.26297 19.0484 2.24737 19.8838 2.24737 20.7551H2.46761C3.30775 20.7551 4.14428 20.7587 4.98262 20.7503C5.43702 20.7496 5.87331 20.5721 6.19902 20.2552C6.48707 19.9834 6.82253 19.8508 7.22459 19.9366C7.65666 20.029 7.95131 20.2834 8.08153 20.7029C8.21175 21.1223 8.13014 21.5094 7.82109 21.8232C7.23442 22.4292 6.46396 22.8243 5.62953 22.9472C5.39281 22.9808 5.15389 22.9964 4.91481 22.994C3.6642 22.9988 2.4142 22.997 1.16419 22.994C0.468677 22.994 0.000600099 22.5217 0 21.8226C0 20.5425 0 19.2623 0 17.9821C0 16.9476 0.36666 16.057 1.05617 15.2937C1.13119 15.2109 1.2116 15.1317 1.29081 15.0537C5.97159 10.373 10.6506 5.69239 15.3277 1.01174C15.8396 0.504069 16.4193 0.14402 17.1466 0.0336045C17.167 0.0336045 17.185 0.0114016 17.2066 0H18.0576C18.089 0.0180295 18.1224 0.0323277 18.1572 0.0426054C18.7527 0.135589 19.3041 0.413053 19.7337 0.835916C20.549 1.63963 21.3587 2.44934 22.1629 3.26505C22.538 3.64542 22.7983 4.12375 22.9142 4.64525C22.9376 4.74486 22.9706 4.84267 22.9988 4.94109V5.7944ZM19.7421 6.74494L20.3674 6.09085C20.4244 6.03084 20.4844 5.97503 20.5372 5.91082C20.824 5.57357 20.821 5.14691 20.5312 4.80907C20.5072 4.78026 20.482 4.75266 20.4556 4.72626C19.7251 3.99975 18.9953 3.27245 18.2664 2.54435C17.9286 2.20951 17.4917 2.1285 17.1766 2.40033C16.8616 2.67217 16.5945 3.01482 16.3131 3.31906L19.7421 6.74494Z" fill="#787878"/>
<path d="M22.9989 22.1435C22.9671 22.2078 22.9389 22.2726 22.9041 22.3368C22.6946 22.752 22.364 22.9969 21.8923 22.9969C18.503 22.9997 15.1134 22.9997 11.7236 22.9969C11.4262 22.9969 11.1409 22.8787 10.9306 22.6684C10.7202 22.458 10.6021 22.1728 10.6021 21.8753C10.6021 21.5779 10.7202 21.2926 10.9306 21.0823C11.1409 20.8719 11.4262 20.7538 11.7236 20.7538C15.113 20.7514 18.5026 20.7514 21.8923 20.7538C22.3646 20.7538 22.6946 20.9938 22.9041 21.4138C22.9365 21.4775 22.9671 21.5429 22.9989 21.6071V22.1435Z" fill="#787878"/>
</svg>
