<svg width="13" height="22" viewBox="0 0 13 22" fill="none" xmlns="http://www.w3.org/2000/svg">
<path d="M10.2249 16.7022C10.2001 16.9074 10.1006 17.0964 9.94516 17.2336C9.78975 17.3707 9.58925 17.4464 9.38156 17.4464H3.17068C2.96079 17.4463 2.75835 17.369 2.6024 17.2291C2.44644 17.0893 2.34804 16.897 2.32616 16.6892L1.00301 1.84346C0.993516 1.73631 1.00652 1.62837 1.04121 1.52649C1.0759 1.42462 1.1315 1.33104 1.2045 1.25171C1.27749 1.17238 1.36626 1.10903 1.46518 1.0657C1.5641 1.02237 1.671 0.999991 1.77908 1H10.9266C11.0354 1.00005 11.1429 1.02275 11.2423 1.06666C11.3417 1.11056 11.4307 1.17469 11.5037 1.25491C11.5767 1.33514 11.632 1.42968 11.6661 1.53246C11.7001 1.63524 11.7122 1.74398 11.7015 1.85169L10.2249 16.7022Z" stroke="white" stroke-width="1.2" stroke-miterlimit="10"/>
<path d="M3.25781 17.417V20.4837C3.25774 20.5515 3.2711 20.6186 3.29714 20.6813C3.32318 20.744 3.36139 20.8009 3.40958 20.8489C3.45777 20.8969 3.51498 20.9349 3.57796 20.9608C3.64093 20.9867 3.70842 21 3.77657 21H8.84725C8.91539 21 8.98288 20.9867 9.04586 20.9608C9.10883 20.9349 9.16605 20.8969 9.21424 20.8489C9.26242 20.8009 9.30063 20.744 9.32667 20.6813C9.35271 20.6186 9.36608 20.5515 9.366 20.4837V17.417" stroke="white" stroke-width="1.2" stroke-miterlimit="10"/>
<path d="M3.90039 8.82715L4.54721 14.8324" stroke="white" stroke-width="1.2" stroke-miterlimit="10" stroke-linecap="round" stroke-linejoin="round"/>
</svg>
