<svg width="24" height="20" viewBox="0 0 24 20" fill="none" xmlns="http://www.w3.org/2000/svg">
<path d="M23.3358 7.24135C23.2554 7.68115 23.1995 8.12095 23.0905 8.55361C22.8053 9.69325 22.224 10.7004 21.5013 11.6322C20.3838 13.072 19.0291 14.2886 17.6315 15.4618C15.983 16.8439 14.3287 18.2203 12.6688 19.591C12.0328 20.1182 11.3494 20.1407 10.7362 19.6284C8.57997 17.8268 6.41919 16.0308 4.29036 14.2012C3.19571 13.2606 2.21172 12.2117 1.41027 11.0182C-0.0272083 8.87796 -0.415099 6.5855 0.493592 4.17538C1.31729 1.99561 2.91677 0.569554 5.3177 0.123155C7.80704 -0.339187 9.81095 0.520076 11.403 2.36724C11.4897 2.4684 11.5702 2.57395 11.6763 2.70589C11.7738 2.5855 11.8588 2.47829 11.9472 2.37604C12.8702 1.28753 13.995 0.490389 15.4342 0.161637C17.9441 -0.411205 20.6074 0.598691 22.0563 2.65257C22.7722 3.66631 23.1687 4.78616 23.2964 6.00056C23.3044 6.07917 23.3232 6.15614 23.3369 6.2342L23.3358 7.24135ZM11.666 18.6702C11.7259 18.6251 11.7744 18.5915 11.8194 18.5542C13.6619 17.0187 15.5164 15.4959 17.3429 13.9434C18.6189 12.8587 19.8328 11.7103 20.7786 10.3304C21.6793 9.0176 22.1236 7.58879 21.9194 6.00716C21.697 4.30292 20.9389 2.88346 19.365 1.99396C17.899 1.16329 16.3526 1.05938 14.7959 1.78176C13.8752 2.20727 13.1987 2.9016 12.6283 3.70589C12.5473 3.82079 12.4743 3.94064 12.3893 4.05279C12.0139 4.54756 11.3454 4.54756 10.9632 4.05608C10.6318 3.63003 10.3272 3.17648 9.94957 2.79165C8.72828 1.54866 7.22064 1.06653 5.48198 1.42882C3.60642 1.81969 2.37486 2.96483 1.75081 4.6883C1.0258 6.69105 1.37148 8.5745 2.56881 10.331C3.31036 11.4206 4.22305 12.3755 5.22072 13.2419C6.87496 14.6751 8.55944 16.0726 10.2331 17.4827C10.7037 17.8791 11.1857 18.2705 11.666 18.6702Z" fill="white"/>
</svg>
