<svg width="9" height="17" viewBox="0 0 9 17" fill="none" xmlns="http://www.w3.org/2000/svg">
<path d="M0.119974 8.21364L8.30129 0.118614C8.3393 0.0810089 8.38442 0.0511798 8.43408 0.0308265C8.48374 0.0104751 8.53696 -4.04805e-08 8.59071 -3.57816e-08C8.64446 -3.10827e-08 8.69768 0.0104751 8.74734 0.0308265C8.797 0.0511799 8.84212 0.0810089 8.88012 0.118614C8.91813 0.156219 8.94828 0.200865 8.96885 0.249998C8.98941 0.299131 9 0.351793 9 0.404976C9 0.458158 8.98941 0.51082 8.96885 0.559954C8.94828 0.609087 8.91813 0.653732 8.88012 0.691338L0.988217 8.5L8.88012 16.3087C8.95688 16.3846 9 16.4876 9 16.595C9 16.7024 8.95688 16.8054 8.88012 16.8814C8.80336 16.9573 8.69926 17 8.59071 17C8.48215 17 8.37805 16.9573 8.30129 16.8814L0.119974 8.78636C0.0819404 8.74877 0.0517681 8.70413 0.0311821 8.655C0.0105961 8.60586 7.38444e-07 8.55319 7.43094e-07 8.5C7.47744e-07 8.44681 0.0105961 8.39414 0.0311821 8.345C0.0517681 8.29587 0.0819405 8.25123 0.119974 8.21364Z" fill="#545453"/>
</svg>
