<svg width="9" height="17" viewBox="0 0 9 17" fill="none" xmlns="http://www.w3.org/2000/svg">
<path d="M8.88003 8.78636L0.698708 16.8814C0.660702 16.919 0.615581 16.9488 0.565924 16.9692C0.516266 16.9895 0.463043 17 0.409294 17C0.355545 17 0.302322 16.9895 0.252664 16.9692C0.203006 16.9488 0.157886 16.919 0.119879 16.8814C0.081873 16.8438 0.0517251 16.7991 0.0311562 16.75C0.0105873 16.7009 0 16.6482 0 16.595C0 16.5418 0.0105873 16.4892 0.0311562 16.44C0.0517251 16.3909 0.081873 16.3463 0.119879 16.3087L8.01178 8.5L0.119879 0.691338C0.043122 0.61539 0 0.512383 0 0.404976C0 0.29757 0.043122 0.194562 0.119879 0.118615C0.196637 0.0426668 0.300742 0 0.409294 0C0.517845 0 0.621951 0.0426668 0.698708 0.118615L8.88003 8.21364C8.91806 8.25123 8.94823 8.29587 8.96882 8.345C8.9894 8.39414 9 8.44681 9 8.5C9 8.55319 8.9894 8.60586 8.96882 8.655C8.94823 8.70413 8.91806 8.74877 8.88003 8.78636Z" fill="#545453"/>
</svg>
