<svg width="23" height="23" viewBox="0 0 23 23" fill="none" xmlns="http://www.w3.org/2000/svg">
<rect width="23" height="23" rx="11.1862" fill="white"/>
<path d="M11 16.5C11 16.6326 11.0527 16.7598 11.1465 16.8536C11.2402 16.9473 11.3674 17 11.5 17C11.6326 17 11.7598 16.9473 11.8535 16.8536C11.9473 16.7598 12 16.6326 12 16.5V12H16.5C16.6326 12 16.7598 11.9473 16.8536 11.8535C16.9473 11.7598 17 11.6326 17 11.5C17 11.3674 16.9473 11.2402 16.8536 11.1465C16.7598 11.0527 16.6326 11 16.5 11H12V6.5C12 6.36739 11.9473 6.24022 11.8535 6.14645C11.7598 6.05268 11.6326 6 11.5 6C11.3674 6 11.2402 6.05268 11.1465 6.14645C11.0527 6.24022 11 6.36739 11 6.5V11H6.5C6.36739 11 6.24022 11.0527 6.14645 11.1465C6.05268 11.2402 6 11.3674 6 11.5C6 11.6326 6.05268 11.7598 6.14645 11.8535C6.24022 11.9473 6.36739 12 6.5 12H11V16.5Z" fill="black"/>
</svg>
