<?xml version="1.0" encoding="UTF-8"?>
<svg width="20px" height="20px" viewBox="0 0 20 20" version="1.1" xmlns="http://www.w3.org/2000/svg" xmlns:xlink="http://www.w3.org/1999/xlink">
    <title>icon_social_tiktok</title>
    <g id="footer" stroke="none" stroke-width="1" fill="none" fill-rule="evenodd">
        <g id="Rose-desktop-footer" transform="translate(-1309.000000, -799.000000)" fill="#545353">
            <g id="Combined-Shape" transform="translate(1309.000000, 799.000000)">
                <path d="M10,0 C15.5233333,0 20,4.47733333 20,10 C20,15.5226667 15.5233333,20 10,20 C4.47733333,20 0,15.5226667 0,10 C0,4.47733333 4.47733333,0 10,0 Z M12.7435068,3.33333333 L10.8465144,3.33333333 L10.8266952,12.6418675 C10.8266952,13.783935 9.82487714,14.6837177 8.69046009,14.6837177 C7.55624915,14.6837177 6.63680015,13.758068 6.63680015,12.616216 C6.5,10.5 8.85656167,10.5639025 8.9391368,10.573879 L8.9391368,10.573879 L8.9391368,8.57763337 C8.85656167,8.57241368 8.77445428,8.56480761 8.69046009,8.56480761 C6.46817755,8.56480761 4.66666667,10.3784757 4.66666667,12.6157371 C4.66666667,14.8529986 6.46817755,16.6666667 8.69046009,16.6666667 C10.9127347,16.6666667 12.7142456,14.8529986 12.7142456,12.6157371 L12.7142456,12.6157371 L12.7142456,7.13485088 C13.3675531,8.13935466 14.4798835,8.74455184 15.6725138,8.74438424 C15.7812504,8.74388941 15.8898998,8.73835046 16,8.72775943 L16,8.72775943 L16,6.50918195 C14.2940578,6.38362995 12.9223799,5.0459357 12.7435068,3.33333333 L12.7435068,3.33333333 Z"></path>
            </g>
        </g>
    </g>
</svg>