<svg xmlns="http://www.w3.org/2000/svg" xmlns:xlink="http://www.w3.org/1999/xlink" width="20" height="20" viewBox="0 0 20 20">
    <defs>
        <path id="r7glhhqeua" d="M0 0L20 0 20 20 0 20z"/>
    </defs>
    <g fill="none" fill-rule="evenodd">
        <g>
            <g transform="translate(-1349.000000, -759.000000) translate(1349.000000, 759.000000)">
                <mask id="v8msg50bmb" fill="#fff">
                    <use xlink:href="#r7glhhqeua"/>
                </mask>
                <path fill="#545353" d="M10 0c5.523 0 10 4.478 10 10.002 0 5.523-4.477 10.001-10 10.001S0 15.525 0 10.002C0 4.478 4.477 0 10 0zm2.975 5.333c-1.36 0-2.462 1.13-2.462 2.525 0 .198.021.39.064.575-2.047-.105-3.861-1.11-5.075-2.637-.212.373-.334.806-.334 1.268 0 .876.435 1.65 1.096 2.102-.404-.013-.783-.127-1.115-.316v.032c0 1.223.848 2.244 1.975 2.475-.207.058-.425.089-.65.089-.158 0-.312-.016-.462-.046.313 1.003 1.222 1.733 2.3 1.754-.843.677-1.905 1.08-3.058 1.08-.199 0-.395-.011-.587-.035 1.09.716 2.383 1.134 3.774 1.134 4.528 0 7.005-3.847 7.005-7.182 0-.11-.003-.218-.008-.327.481-.356.899-.8 1.229-1.307-.442.201-.916.337-1.414.398.508-.313.898-.807 1.082-1.397-.475.29-1.002.5-1.563.613-.45-.49-1.089-.798-1.797-.798z" mask="url(#v8msg50bmb)"/>
            </g>
        </g>
    </g>
</svg>
