<svg xmlns="http://www.w3.org/2000/svg" width="20" height="20" viewBox="0 0 20 20">
    <g fill="none" fill-rule="evenodd">
        <g fill="#545353">
            <g>
                <path d="M10 0c5.523 0 10 4.477 10 10s-4.477 10-10 10S0 15.523 0 10 4.477 0 10 0zm.193 5.334h-.386c-.83.004-4.11.035-5.016.278-.574.153-1.026.605-1.179 1.179-.244.91-.274 2.684-.278 3.114v.19c.004.43.034 2.204.278 3.114.153.574.605 1.026 1.179 1.18.905.242 4.185.273 5.016.277h.386c.83-.004 4.11-.035 5.016-.278.574-.153 1.026-.605 1.179-1.179.244-.91.274-2.684.278-3.114v-.19c-.004-.43-.034-2.204-.278-3.114-.153-.574-.605-1.026-1.179-1.179-.905-.243-4.185-.274-5.016-.278zM8.667 8L12 10l-3.333 2V8z" transform="translate(-1349.000000, -719.000000) translate(1349.000000, 719.000000)"/>
            </g>
        </g>
    </g>
</svg>
