<svg xmlns="http://www.w3.org/2000/svg" width="20" height="20" viewBox="0 0 20 20">
    <g fill="none" fill-rule="evenodd">
        <g fill="#545353">
            <path d="M9.997 0C5.187.012 1.065 3.425.174 8.132c-.89 4.708 1.702 9.381 6.177 11.136-.145-.945-.145-1.907 0-2.852.21-.798 1.203-5.01 1.203-5.01-.202-.467-.302-.973-.296-1.482 0-1.388.802-2.415 1.814-2.415.362-.005 1.428.491 1.269 1.398-.18 1.132-.46 2.245-.84 3.327C9.389 12.68 9.5 14 10.99 14.04c1.775 0 3.15-1.901 3.15-4.563.034-1.106-.4-2.176-1.198-2.948-.797-.772-1.883-1.175-2.992-1.11-1.19-.053-2.35.385-3.206 1.21-.856.826-1.333 1.966-1.319 3.152-.003.818.258 1.614.745 2.272.067.083.092.192.067.295l-.287 1.131c0 .18-.143.219-.334.133-1.25-.59-2.042-2.395-2.042-3.869 0-3.146 2.3-6.036 6.624-6.036 1.6-.08 3.163.493 4.33 1.588 1.165 1.094 1.832 2.615 1.845 4.21 0 3.442-2.176 6.208-5.192 6.208-.912.038-1.779-.398-2.29-1.15l-.63 2.376c-.296.923-.713 1.802-1.242 2.614.958.3 1.956.45 2.96.447C15.512 20 20 15.531 20 10.019S15.513.038 9.978.038L9.998 0z" transform="translate(-1349.000000, -799.000000) translate(1349.000000, 799.000000)"/>
        </g>
    </g>
</svg>
