<svg xmlns="http://www.w3.org/2000/svg" xmlns:xlink="http://www.w3.org/1999/xlink" width="20" height="20" viewBox="0 0 20 20">
    <defs>
        <path id="7d312wv0ua" d="M0 0L20 0 20 20 0 20z"/>
    </defs>
    <g fill="none" fill-rule="evenodd">
        <g>
            <g>
                <path fill="#545353" d="M13.334 10c0 1.841-1.493 3.333-3.334 3.333-1.84 0-3.333-1.492-3.333-3.333 0-1.84 1.493-3.333 3.333-3.333 1.841 0 3.334 1.492 3.334 3.333zM14 6.667c0 .368-.298.666-.666.666-.368 0-.667-.298-.667-.666 0-.368.299-.667.667-.667.368 0 .666.299.666.667zm-8.698 8.031c.233.233.455.378.766.499.235.091.588.2 1.238.23.703.032.914.038 2.694.038 1.78 0 1.991-.006 2.694-.038.65-.03 1.003-.139 1.238-.23.311-.121.533-.266.766-.499.234-.233.378-.455.5-.767.09-.234.2-.587.23-1.238.031-.702.038-.913.038-2.693s-.007-1.991-.039-2.694c-.03-.65-.139-1.003-.23-1.238-.12-.311-.265-.533-.499-.767-.233-.233-.455-.377-.766-.498-.235-.092-.588-.2-1.238-.23-.703-.032-.914-.038-2.694-.038-1.78 0-1.99.006-2.694.038-.65.03-1.003.138-1.238.23-.311.121-.533.265-.766.498-.234.234-.378.456-.499.767-.091.235-.2.588-.23 1.238-.031.703-.039.914-.039 2.694 0 1.78.008 1.99.039 2.693.03.651.139 1.004.23 1.238.12.312.265.534.499.767z" transform="translate(-1309.000000, -719.000000) translate(1309.000000, 719.000000)"/>
                <path fill="#545353" d="M12.164 10c0-1.195-.969-2.164-2.164-2.164-1.194 0-2.163.97-2.163 2.164 0 1.195.969 2.164 2.163 2.164 1.195 0 2.164-.969 2.164-2.164z" transform="translate(-1309.000000, -719.000000) translate(1309.000000, 719.000000)"/>
                <g transform="translate(-1309.000000, -719.000000) translate(1309.000000, 719.000000)">
                    <mask id="171ffeswtb" fill="#fff">
                        <use xlink:href="#7d312wv0ua"/>
                    </mask>
                    <path fill="#545353" d="M3.373 7.251c.033-.71.145-1.194.31-1.618.17-.438.399-.81.77-1.181.37-.37.741-.599 1.18-.769.424-.164.909-.277 1.618-.31.711-.032.938-.04 2.749-.04 1.81 0 2.038.008 2.748.04.71.033 1.195.146 1.618.31.44.17.811.399 1.182.769.37.37.599.743.77 1.18.164.425.277.91.31 1.62.031.71.039.937.039 2.748 0 1.81-.008 2.037-.04 2.749-.032.709-.145 1.194-.31 1.618-.17.438-.398.81-.77 1.18-.37.371-.742.599-1.18.769-.424.165-.909.278-1.619.31-.71.033-.938.04-2.748.04-1.81 0-2.038-.007-2.749-.04-.71-.032-1.194-.145-1.618-.31-.439-.17-.81-.398-1.18-.769-.371-.37-.6-.742-.77-1.18-.165-.424-.277-.909-.31-1.618-.032-.712-.04-.94-.04-2.75s.008-2.036.04-2.748M20 10c0-5.523-4.477-10-10-10S0 4.477 0 10s4.477 10 10 10 10-4.477 10-10z" mask="url(#171ffeswtb)"/>
                </g>
            </g>
        </g>
    </g>
</svg>
