<svg xmlns="http://www.w3.org/2000/svg" xmlns:xlink="http://www.w3.org/1999/xlink" width="150" height="22" viewBox="0 0 150 22">
    <defs>
      <path id="rsjppawbda" d="M0 0L21.302 0 21.302 21.302 0 21.302z"/>
      <path id="vr25xwyvac" d="M0 0L14.201 0 14.201 21.302 0 21.302z"/>
      <path id="3kcoxpvjze" d="M0 21.302L150 21.302 150 0 0 0z"/>
    </defs>
    <g fill="none" fill-rule="evenodd">
      <g>
        <g transform="translate(-645 -89) translate(645 89)">
          <g transform="translate(19.527)">
            <mask id="cohed8dbwb" fill="#fff">
              <use xlink:href="#rsjppawbda"/>
            </mask>
            <path fill="#fff" d="M10.65 3.475c3.858 0 6.997 3.22 6.997 7.176 0 3.957-3.139 7.176-6.996 7.176-3.858 0-6.996-3.219-6.996-7.176 0-3.957 3.138-7.176 6.996-7.176m0 17.827c5.872 0 10.65-4.778 10.65-10.65C21.302 4.777 16.524 0 10.652 0 4.778 0 0 4.778 0 10.65s4.778 10.65 10.65 10.65" mask="url(#cohed8dbwb)"/>
          </g>
          <g transform="translate(45.266)">
            <mask id="do2uuv3ujd" fill="#fff">
              <use xlink:href="#vr25xwyvac"/>
            </mask>
            <path fill="#fff" d="M7.188 21.302c4.167 0 6.985-2.436 7.013-6.062 0-2.84-1.56-4.8-4.767-5.988l-1.689-.63c-2.108-.77-3.491-1.396-3.491-3.013 0-1.327 1.304-2.254 3.171-2.254 1.46 0 2.757.573 3.772 1.66l2.336-2.443C11.91.865 9.847 0 7.395 0 3.297 0 .65 2.367.65 6.03c0 2.686 1.616 4.566 4.941 5.749l1.776.63c2.192.762 3.17 1.72 3.17 3.104 0 1.456-1.274 2.434-3.17 2.434-1.759 0-3.532-.913-4.626-2.354L0 17.921c1.51 2.123 4.17 3.38 7.188 3.38" mask="url(#do2uuv3ujd)"/>
          </g>
          <path fill="#fff" d="M66.568 0L66.568 20.414 78.994 20.414 78.994 17.027 70.161 17.027 70.161 11.841 77.209 11.841 77.209 8.454 70.161 8.454 70.161 3.387 78.994 3.387 78.994 0z"/>
          <mask id="5bpp3ucbcf" fill="#fff">
            <use xlink:href="#3kcoxpvjze"/>
          </mask>
          <path fill="#fff" d="M95.858 20.414L99.408 20.414 99.408 0 95.858 0zM121.456 0L121.456 14.463 109.78 0 106.509 0 106.509 20.414 110.201 20.414 110.201 5.951 121.877 20.414 125.148 20.414 125.148 0zM141.345 21.302c4.02 0 7.642-1.971 9.543-5.168l-3.222-1.753c-1.446 2.256-3.625 3.446-6.321 3.446-3.937 0-7.14-3.219-7.14-7.176 0-3.957 3.203-7.176 7.14-7.176 2.696 0 4.875 1.19 6.321 3.446l3.222-1.753C148.987 1.971 145.365 0 141.345 0c-5.994 0-10.872 4.778-10.872 10.651s4.878 10.65 10.872 10.65M3.628 3.238h3.667c1.881 0 3.096 1.041 3.096 2.653 0 1.586-1.244 2.652-3.096 2.652H3.628V3.238zm8.916 17.176h4.32l-7.513-9.2.506-.16c2.78-.88 4.132-2.568 4.132-5.163C13.989 2.423 11.446 0 7.805 0H0v20.414h3.628V9.471l2.28 2.85 6.636 8.093z" mask="url(#5bpp3ucbcf)"/>
        </g>
      </g>
    </g>
</svg>