<?xml version="1.0" encoding="UTF-8"?>
<svg width="22px" height="22px" viewBox="0 0 22 22" version="1.1" xmlns="http://www.w3.org/2000/svg" xmlns:xlink="http://www.w3.org/1999/xlink">
    <title>83CAC056-9269-4876-9476-251149B4402E</title>
    <g id="Page-1" stroke="none" stroke-width="1" fill="none" fill-rule="evenodd">
        <g id="Desktop-Rose-Ingredients" transform="translate(-1359.000000, -1576.000000)" fill-rule="nonzero" stroke="#919191">
            <path d="M1370,1577 C1364.47715,1577 1360,1581.47715 1360,1587 C1360,1592.52285 1364.47715,1597 1370,1597 C1375.52285,1597 1380,1592.52285 1380,1587 C1380,1581.47715 1375.52285,1577 1370,1577 Z M1370.47619,1586.52381 L1375.2381,1586.52381 C1375.40983,1586.52138 1375.56956,1586.61161 1375.65614,1586.75994 C1375.74271,1586.90827 1375.74271,1587.09173 1375.65614,1587.24006 C1375.56956,1587.38839 1375.40983,1587.47862 1375.2381,1587.47619 L1370.47619,1587.47619 L1369.52381,1587.47619 L1364.7619,1587.47619 C1364.59176,1587.4842 1364.43026,1587.40082 1364.33827,1587.25746 C1364.24628,1587.1141 1364.23777,1586.93255 1364.31595,1586.78121 C1364.39413,1586.62988 1364.54711,1586.53175 1364.71726,1586.52381 C1364.73213,1586.52311 1364.74703,1586.52311 1364.7619,1586.52381 L1369.52381,1586.52381 L1370.47619,1586.52381 Z" id="Shape-Copy-22"></path>
        </g>
    </g>
</svg>