<svg width="18" height="18" viewBox="0 0 18 18" fill="none" xmlns="http://www.w3.org/2000/svg">
<path d="M8.99662 1.8623C5.88836 1.8623 3.35938 4.0266 3.35938 6.68672C3.35938 9.34697 5.88832 11.5111 8.99662 11.5111C12.1049 11.5111 14.6339 9.34685 14.6339 6.68672C14.6339 4.02648 12.1049 1.8623 8.99662 1.8623ZM8.99662 10.834C6.32456 10.834 4.15057 8.97359 4.15057 6.68672C4.15057 4.39978 6.32446 2.53942 8.99662 2.53942C11.6688 2.53942 13.8427 4.39986 13.8427 6.68672C13.8427 8.97367 11.6688 10.834 8.99662 10.834Z" fill="#545453"/>
<path d="M18 6.34792H16.8031C16.5964 2.81767 13.1756 0 9 0C4.82439 0 1.40361 2.81767 1.19687 6.34792H0V7.02507H1.19687C1.39702 10.4431 4.6103 13.1932 8.6044 13.3645V17.3228H6.62642V18H11.3736V17.3228H9.3956L9.39541 13.3645C13.3893 13.1932 16.6028 10.4433 16.8029 7.02507H17.9998L18 6.34792ZM9.00019 12.6958C5.12829 12.6958 1.97836 10 1.97836 6.68648C1.97836 3.37294 5.12839 0.677111 9.00019 0.677111C12.872 0.677111 16.022 3.37294 16.022 6.68648C16.022 10 12.872 12.6958 9.00019 12.6958Z" fill="#545453"/>
<path d="M7.12408 3.97949L7.68352 4.45827L6.0985 5.81475L5.53906 5.33597L7.12408 3.97949Z" fill="#545453"/>
<path d="M6.39928 7.47101L5.83984 6.99224L9.05665 4.23926L9.61609 4.71803L6.39928 7.47101Z" fill="#545453"/>
</svg>
