<?xml version="1.0" encoding="UTF-8"?>
<svg width="22px" height="22px" viewBox="0 0 22 22" version="1.1" xmlns="http://www.w3.org/2000/svg" xmlns:xlink="http://www.w3.org/1999/xlink">
    <title>412A9FAA-F1EE-464D-9631-3CCAEDF97005</title>
    <g id="Page-1" stroke="none" stroke-width="1" fill="none" fill-rule="evenodd">
        <g id="Desktop-Rose-Ingredients" transform="translate(-1359.000000, -1495.000000)" fill-rule="nonzero" stroke="#919191">
            <path d="M1370,1496 C1364.47715,1496 1360,1500.47715 1360,1506 C1360,1511.52285 1364.47715,1516 1370,1516 C1375.52285,1516 1380,1511.52285 1380,1506 C1380,1500.47715 1375.52285,1496 1370,1496 Z M1369.94792,1500.27827 C1370.08426,1500.26325 1370.22047,1500.30776 1370.32164,1500.40038 C1370.42282,1500.49301 1370.47914,1500.62476 1370.47619,1500.7619 L1370.47619,1505.52381 L1375.2381,1505.52381 C1375.40983,1505.52138 1375.56956,1505.61161 1375.65614,1505.75994 C1375.74271,1505.90827 1375.74271,1506.09173 1375.65614,1506.24006 C1375.56956,1506.38839 1375.40983,1506.47862 1375.2381,1506.47619 L1370.47619,1506.47619 L1370.47619,1511.2381 C1370.47862,1511.40983 1370.38839,1511.56956 1370.24006,1511.65614 C1370.09173,1511.74271 1369.90827,1511.74271 1369.75994,1511.65614 C1369.61161,1511.56956 1369.52138,1511.40983 1369.52381,1511.2381 L1369.52381,1506.47619 L1364.7619,1506.47619 C1364.59176,1506.4842 1364.43026,1506.40082 1364.33827,1506.25746 C1364.24628,1506.1141 1364.23777,1505.93255 1364.31595,1505.78121 C1364.39413,1505.62988 1364.54711,1505.53175 1364.71726,1505.52381 C1364.73213,1505.52311 1364.74703,1505.52311 1364.7619,1505.52381 L1369.52381,1505.52381 L1369.52381,1500.7619 C1369.5185,1500.51515 1369.70259,1500.30523 1369.94792,1500.27827 Z" id="Shape-Copy-21"></path>
        </g>
    </g>
</svg>