<svg width="17" height="14" viewBox="0 0 17 14" fill="none" xmlns="http://www.w3.org/2000/svg">
<rect y="4" width="7" height="6" rx="1" fill="#FAFAFA"/>
<path d="M2.48679 7C2.48679 7 2.35354 4.5845 2.48679 4.5L9.21074 0.132259C9.41335 0.00312772 9.71806 -0.035502 9.98279 0.0343801C10.2475 0.104262 10.4201 0.268896 10.4202 0.451523L10.4202 13.5485C10.4201 13.7311 10.2475 13.8957 9.98271 13.9656C9.71796 14.0355 9.41324 13.9969 9.2106 13.8677L2.48679 10C2.35354 9.9155 2.48679 7 2.48679 7Z" fill="#FAFAFA"/>
<path d="M11.5 13C14.2614 13 16.5 10.3137 16.5 7C16.5 3.68629 14.2614 1 11.5 1" stroke="#FAFAFA"/>
<path d="M12 9.39998C13.1046 9.39998 14 8.32546 14 6.99998C14 5.67449 13.1046 4.59998 12 4.59998" stroke="#FAFAFA"/>
</svg>
