<svg width="23" height="20" viewBox="0 0 23 20" fill="none" xmlns="http://www.w3.org/2000/svg">
<rect x="3" y="7" width="7" height="6" rx="1" fill="#FAFAFA"/>
<path d="M5.48655 10C5.48655 10 5.3533 7.5845 5.48655 7.5L12.2105 3.13226C12.4131 3.00313 12.7178 2.9645 12.9825 3.03438C13.2473 3.10426 13.4199 3.2689 13.4199 3.45152L13.4199 16.5485C13.4199 16.7311 13.2472 16.8957 12.9825 16.9656C12.7177 17.0355 12.413 16.9969 12.2104 16.8677L5.48655 13C5.35329 12.9155 5.48655 10 5.48655 10Z" fill="#FAFAFA"/>
<path d="M14.5 16C17.2614 16 19.5 13.3137 19.5 10C19.5 6.68629 17.2614 4 14.5 4" stroke="#FAFAFA"/>
<path d="M15 12.4001C16.1046 12.4001 17 11.3256 17 10.0001C17 8.67461 16.1046 7.6001 15 7.6001" stroke="#FAFAFA"/>
<path d="M1.5 18.5L21.5 1.5" stroke="#E6E3E0" stroke-linecap="square"/>
</svg>
