<svg id="Layer_1" data-name="Layer 1" xmlns="http://www.w3.org/2000/svg" width="98.5" height="16.01" viewBox="0 0 98.5 16.01">
    <defs>
        <style>.cls-1{isolation:isolate;}.cls-2{fill:#919191;}.cls-3{fill:none;}</style>
    </defs>
    <g id="after" class="cls-1">
        <g class="cls-1">
            <path class="cls-2" d="M706.17,372v3.54a.51.51,0,0,1-.13.37.48.48,0,0,1-.37.15.5.5,0,0,1-.38-.15.51.51,0,0,1-.14-.37v-.63a1.9,1.9,0,0,1-.76.87,2.21,2.21,0,0,1-1.17.3,2.62,2.62,0,0,1-1.12-.24,2.11,2.11,0,0,1-.81-.69,1.72,1.72,0,0,1-.3-1,1.61,1.61,0,0,1,.36-1.11,2.24,2.24,0,0,1,1.2-.57,11.44,11.44,0,0,1,2.31-.18h.29v-.43a1.71,1.71,0,0,0-.32-1.14,1.31,1.31,0,0,0-1-.36,3.86,3.86,0,0,0-1.8.48,1.14,1.14,0,0,1-.49.22.32.32,0,0,1-.26-.12.44.44,0,0,1-.11-.3.54.54,0,0,1,.11-.32,1.67,1.67,0,0,1,.36-.28,4.9,4.9,0,0,1,1-.41,5,5,0,0,1,1.15-.14Q706.17,369.51,706.17,372Zm-1.52,2.73a1.93,1.93,0,0,0,.5-1.36V373h-.24a10.94,10.94,0,0,0-1.74.1,1.66,1.66,0,0,0-.85.32.85.85,0,0,0-.25.67,1.07,1.07,0,0,0,.37.84,1.32,1.32,0,0,0,.93.33A1.7,1.7,0,0,0,704.65,374.73Z" transform="translate(-639 -363.99)" />
            <path class="cls-2" d="M710,368.1a1.65,1.65,0,0,0-.35,1.15v.41h1.45a.43.43,0,0,1,.33.12.41.41,0,0,1,.12.31.38.38,0,0,1-.12.3.47.47,0,0,1-.33.1h-1.45v5.05a.49.49,0,0,1-.15.38.53.53,0,0,1-.37.14.56.56,0,0,1-.38-.14.49.49,0,0,1-.15-.38v-5.05h-.87a.49.49,0,0,1-.35-.11.37.37,0,0,1-.12-.29.41.41,0,0,1,.12-.31.5.5,0,0,1,.35-.12h.87v-.23a2.69,2.69,0,0,1,.59-1.84,2.29,2.29,0,0,1,1.67-.75l.34,0a.92.92,0,0,1,.49.07.35.35,0,0,1,.15.32c0,.26-.15.4-.46.43l-.34,0A1.48,1.48,0,0,0,710,368.1Z" transform="translate(-639 -363.99)" />
            <path class="cls-2" d="M715.7,375.64a.36.36,0,0,1-.16.33.77.77,0,0,1-.49.09l-.35,0a2.21,2.21,0,0,1-1.53-.62,2.41,2.41,0,0,1-.5-1.65v-3.27h-.87a.47.47,0,0,1-.34-.11.37.37,0,0,1-.12-.29.41.41,0,0,1,.12-.31.47.47,0,0,1,.34-.12h.87v-1.47a.49.49,0,0,1,.15-.38.53.53,0,0,1,.39-.14.51.51,0,0,1,.37.14.49.49,0,0,1,.15.38v1.47h1.44a.45.45,0,0,1,.33.12.42.42,0,0,1,.13.31.38.38,0,0,1-.13.29.44.44,0,0,1-.33.11h-1.44v3.32a1.51,1.51,0,0,0,.29,1,1.3,1.3,0,0,0,.88.36l.35,0C715.55,375.25,715.7,375.39,715.7,375.64Z" transform="translate(-639 -363.99)" />
            <path class="cls-2" d="M722,374.64a.44.44,0,0,1,.11.3c0,.22-.16.42-.46.6a4,4,0,0,1-2,.54,3.1,3.1,0,0,1-2.32-.87,3.27,3.27,0,0,1-.85-2.4,3.76,3.76,0,0,1,.37-1.72,2.86,2.86,0,0,1,1.06-1.17,2.93,2.93,0,0,1,1.56-.41,2.51,2.51,0,0,1,2,.8,3.13,3.13,0,0,1,.73,2.19.54.54,0,0,1-.11.37.42.42,0,0,1-.33.12h-4.19c.08,1.49.78,2.24,2.12,2.24a2.48,2.48,0,0,0,.87-.14,6.69,6.69,0,0,0,.78-.37,1.31,1.31,0,0,1,.46-.2A.31.31,0,0,1,722,374.64Zm-3.85-3.8a2.35,2.35,0,0,0-.59,1.47h3.67a2.16,2.16,0,0,0-.48-1.47,1.61,1.61,0,0,0-1.27-.52A1.78,1.78,0,0,0,718.17,370.84Z" transform="translate(-639 -363.99)" />
            <path class="cls-2" d="M727.53,370a.48.48,0,0,1-.11.34.62.62,0,0,1-.41.14l-.39,0a1.77,1.77,0,0,0-1.29.62,2,2,0,0,0-.42,1.27v3.16a.5.5,0,0,1-.15.39.55.55,0,0,1-.37.13.56.56,0,0,1-.39-.14.49.49,0,0,1-.15-.38v-5.49a.5.5,0,0,1,.16-.38.56.56,0,0,1,.38-.14.48.48,0,0,1,.49.51v.73a2,2,0,0,1,.78-.87,2.64,2.64,0,0,1,1.15-.36H727C727.35,369.51,727.53,369.65,727.53,370Z" transform="translate(-639 -363.99)" />
        </g>
    </g>
    <g id="before" class="cls-1">
        <g class="cls-1">
            <path class="cls-2" d="M643.86,369.91a2.63,2.63,0,0,1,1,1.14,4.43,4.43,0,0,1,0,3.45,2.71,2.71,0,0,1-1,1.17,2.66,2.66,0,0,1-1.47.41,2.47,2.47,0,0,1-1.29-.32,2.14,2.14,0,0,1-.84-.92v.7a.48.48,0,0,1-.52.52.53.53,0,0,1-.39-.15.51.51,0,0,1-.14-.37v-8.27a.49.49,0,0,1,.14-.36.53.53,0,0,1,.39-.15.55.55,0,0,1,.39.14.49.49,0,0,1,.13.37v3.48a2.08,2.08,0,0,1,.84-.92,2.47,2.47,0,0,1,1.29-.32A2.66,2.66,0,0,1,643.86,369.91Zm-.24,4.66a2.9,2.9,0,0,0,.5-1.8,2.79,2.79,0,0,0-.5-1.76,2,2,0,0,0-2.86,0,3.44,3.44,0,0,0,0,3.57,1.93,1.93,0,0,0,2.86,0Z" transform="translate(-639 -363.99)" />
            <path class="cls-2" d="M652.05,374.64a.44.44,0,0,1,.11.3c0,.22-.16.42-.46.6a4,4,0,0,1-2,.54,3.1,3.1,0,0,1-2.32-.87,3.27,3.27,0,0,1-.85-2.4,3.76,3.76,0,0,1,.37-1.72,2.8,2.8,0,0,1,2.62-1.58,2.49,2.49,0,0,1,2,.8,3.13,3.13,0,0,1,.73,2.19.54.54,0,0,1-.11.37.4.4,0,0,1-.33.12h-4.19c.08,1.49.78,2.24,2.12,2.24a2.48,2.48,0,0,0,.87-.14,6.69,6.69,0,0,0,.78-.37,1.31,1.31,0,0,1,.46-.2A.31.31,0,0,1,652.05,374.64Zm-3.85-3.8a2.35,2.35,0,0,0-.59,1.47h3.68a2.21,2.21,0,0,0-.49-1.47,1.61,1.61,0,0,0-1.27-.52A1.78,1.78,0,0,0,648.2,370.84Z" transform="translate(-639 -363.99)" />
            <path class="cls-2" d="M655.63,368.1a1.6,1.6,0,0,0-.35,1.15v.41h1.44a.45.45,0,0,1,.34.12.41.41,0,0,1,.11.31.37.37,0,0,1-.11.3.49.49,0,0,1-.34.1h-1.44v5.05a.49.49,0,0,1-.15.38.55.55,0,0,1-.37.14.56.56,0,0,1-.39-.14.49.49,0,0,1-.15-.38v-5.05h-.87a.47.47,0,0,1-.34-.11.38.38,0,0,1-.13-.29.42.42,0,0,1,.13-.31.47.47,0,0,1,.34-.12h.87v-.23a2.69,2.69,0,0,1,.59-1.84,2.33,2.33,0,0,1,1.68-.75l.33,0a.92.92,0,0,1,.49.07.35.35,0,0,1,.15.32c0,.26-.15.4-.45.43l-.34,0A1.46,1.46,0,0,0,655.63,368.1Z" transform="translate(-639 -363.99)" />
            <path class="cls-2" d="M659.25,375.68a2.69,2.69,0,0,1-1.06-1.15,4.25,4.25,0,0,1,0-3.47,2.69,2.69,0,0,1,1.06-1.15,3.32,3.32,0,0,1,3.16,0,2.63,2.63,0,0,1,1.06,1.15,4.25,4.25,0,0,1,0,3.47,2.63,2.63,0,0,1-1.06,1.15,3.32,3.32,0,0,1-3.16,0Zm3-1.08a2.81,2.81,0,0,0,.5-1.81,2.75,2.75,0,0,0-.5-1.78,1.94,1.94,0,0,0-2.86,0,2.75,2.75,0,0,0-.51,1.78,2.86,2.86,0,0,0,.5,1.8,2,2,0,0,0,2.87,0Z" transform="translate(-639 -363.99)" />
            <path class="cls-2" d="M669.23,370a.49.49,0,0,1-.12.34.59.59,0,0,1-.4.14l-.39,0a1.78,1.78,0,0,0-1.3.62,2,2,0,0,0-.42,1.27v3.16a.53.53,0,0,1-.14.39.58.58,0,0,1-.38.13.54.54,0,0,1-.38-.14.49.49,0,0,1-.15-.38v-5.49a.49.49,0,0,1,.15-.38.57.57,0,0,1,.38-.14.48.48,0,0,1,.35.14.46.46,0,0,1,.14.37v.73a2,2,0,0,1,.78-.87,2.64,2.64,0,0,1,1.15-.36h.18C669,369.51,669.23,369.65,669.23,370Z" transform="translate(-639 -363.99)" />
            <path class="cls-2" d="M675.28,374.64a.44.44,0,0,1,.11.3c0,.22-.15.42-.46.6a4,4,0,0,1-2,.54,3.1,3.1,0,0,1-2.32-.87,3.27,3.27,0,0,1-.85-2.4,3.63,3.63,0,0,1,.38-1.72,2.8,2.8,0,0,1,1.06-1.17,2.87,2.87,0,0,1,1.55-.41,2.49,2.49,0,0,1,2,.8,3.13,3.13,0,0,1,.73,2.19.61.61,0,0,1-.1.37.44.44,0,0,1-.34.12h-4.19c.08,1.49.79,2.24,2.12,2.24a2.48,2.48,0,0,0,.87-.14,6.69,6.69,0,0,0,.78-.37,1.31,1.31,0,0,1,.46-.2A.31.31,0,0,1,675.28,374.64Zm-3.85-3.8a2.41,2.41,0,0,0-.59,1.47h3.68a2.27,2.27,0,0,0-.48-1.47,1.64,1.64,0,0,0-1.28-.52A1.78,1.78,0,0,0,671.43,370.84Z" transform="translate(-639 -363.99)" />
        </g>
    </g>
    <circle id="Ellipse_287" data-name="Ellipse 287" class="cls-2" cx="49.23" cy="8" r="8" />
    <rect class="cls-3" y="0.01" width="98.5" height="16" />
</svg>